<?xml version="1.0" encoding="UTF-8" standalone="no"?>
<!DOCTYPE svg PUBLIC "-//W3C//DTD SVG 1.1//EN"
 "http://www.w3.org/Graphics/SVG/1.1/DTD/svg11.dtd">
<!-- Generated by graphviz version 2.43.0 (0)
 -->
<!-- Title: G Pages: 1 -->
<svg width="612pt" height="520pt"
 viewBox="0.00 0.00 612.12 519.97" xmlns="http://www.w3.org/2000/svg" xmlns:xlink="http://www.w3.org/1999/xlink">
<g id="graph0" class="graph" transform="scale(1 1) rotate(0) translate(4 515.97)">
<title>G</title><style>.edge>path:hover{stroke-width:8}</style>
<polygon fill="white" stroke="transparent" points="-4,4 -4,-515.97 608.12,-515.97 608.12,4 -4,4"/>
<!-- app_chat -->
<g id="node1" class="node">
<title>app_chat</title><style>.edge>path:hover{stroke-width:8}</style>
<ellipse fill="#822b2b" stroke="black" cx="434.01" cy="-90" rx="34.96" ry="18"/>
<text text-anchor="middle" x="434.01" y="-87.5" font-family="Helvetica,sans-Serif" font-size="10.00" fill="#ffffff">app.chat</text>
</g>
<!-- app_main -->
<g id="node6" class="node">
<title>app_main</title><style>.edge>path:hover{stroke-width:8}</style>
<ellipse fill="#a44646" stroke="black" cx="527.01" cy="-18" rx="36.49" ry="18"/>
<text text-anchor="middle" x="527.01" y="-15.5" font-family="Helvetica,sans-Serif" font-size="10.00" fill="#ffffff">app.main</text>
</g>
<!-- app_chat&#45;&gt;app_main -->
<g id="edge1" class="edge">
<title>app_chat&#45;&gt;app_main</title><style>.edge>path:hover{stroke-width:8}</style>
<path fill="none" stroke="black" d="M452.83,-74.83C466.36,-64.65 484.79,-50.78 499.9,-39.41"/>
<polygon fill="#822b2b" stroke="black" points="502.02,-42.19 507.9,-33.38 497.81,-36.6 502.02,-42.19"/>
</g>
<!-- app_config -->
<g id="node2" class="node">
<title>app_config</title><style>.edge>path:hover{stroke-width:8}</style>
<ellipse fill="#e72222" stroke="black" cx="279.01" cy="-493.97" rx="39.38" ry="18"/>
<text text-anchor="middle" x="279.01" y="-491.47" font-family="Helvetica,sans-Serif" font-size="10.00" fill="#ffffff">app.config</text>
</g>
<!-- app_ingest_news_api -->
<g id="node5" class="node">
<title>app_ingest_news_api</title><style>.edge>path:hover{stroke-width:8}</style>
<ellipse fill="#a44646" stroke="black" cx="264.01" cy="-244.99" rx="43.68" ry="28.98"/>
<text text-anchor="middle" x="264.01" y="-253.49" font-family="Helvetica,sans-Serif" font-size="10.00" fill="#ffffff">app.</text>
<text text-anchor="middle" x="264.01" y="-242.49" font-family="Helvetica,sans-Serif" font-size="10.00" fill="#ffffff">ingest.</text>
<text text-anchor="middle" x="264.01" y="-231.49" font-family="Helvetica,sans-Serif" font-size="10.00" fill="#ffffff">news_api</text>
</g>
<!-- app_config&#45;&gt;app_ingest_news_api -->
<g id="edge2" class="edge">
<title>app_config&#45;&gt;app_ingest_news_api</title><style>.edge>path:hover{stroke-width:8}</style>
<path fill="none" stroke="black" d="M279.01,-420.97C279.01,-367.48 359.62,-392.79 368.01,-339.97"/>
<path fill="none" stroke="black" d="M368.01,-337.97C370.85,-320.08 334.48,-291.47 303.97,-270.91"/>
<polygon fill="#e72222" stroke="black" points="305.83,-267.94 295.56,-265.34 301.97,-273.78 305.83,-267.94"/>
</g>
<!-- app_rag_chroma_client -->
<g id="node8" class="node">
<title>app_rag_chroma_client</title><style>.edge>path:hover{stroke-width:8}</style>
<ellipse fill="#b83d3d" stroke="black" cx="279.01" cy="-338.97" rx="60.62" ry="28.98"/>
<text text-anchor="middle" x="279.01" y="-347.47" font-family="Helvetica,sans-Serif" font-size="10.00" fill="#ffffff">app.</text>
<text text-anchor="middle" x="279.01" y="-336.47" font-family="Helvetica,sans-Serif" font-size="10.00" fill="#ffffff">rag.</text>
<text text-anchor="middle" x="279.01" y="-325.47" font-family="Helvetica,sans-Serif" font-size="10.00" fill="#ffffff">chroma_client</text>
</g>
<!-- app_config&#45;&gt;app_rag_chroma_client -->
<g id="edge3" class="edge">
<title>app_config&#45;&gt;app_rag_chroma_client</title><style>.edge>path:hover{stroke-width:8}</style>
<path fill="none" stroke="black" d="M279.01,-420.97C279.01,-407.1 279.01,-391.89 279.01,-378.44"/>
<polygon fill="#e72222" stroke="black" points="282.51,-378.09 279.01,-368.09 275.51,-378.09 282.51,-378.09"/>
</g>
<!-- app_rag_llm -->
<g id="node9" class="node">
<title>app_rag_llm</title><style>.edge>path:hover{stroke-width:8}</style>
<ellipse fill="#b03a3a" stroke="black" cx="368.01" cy="-244.99" rx="42.27" ry="18"/>
<text text-anchor="middle" x="368.01" y="-242.49" font-family="Helvetica,sans-Serif" font-size="10.00" fill="#ffffff">app.rag.llm</text>
</g>
<!-- app_config&#45;&gt;app_rag_llm -->
<g id="edge4" class="edge">
<title>app_config&#45;&gt;app_rag_llm</title><style>.edge>path:hover{stroke-width:8}</style>
<path fill="none" stroke="black" d="M368.01,-337.97C371.45,-316.35 371.2,-291.51 370.23,-273.1"/>
<polygon fill="#e72222" stroke="black" points="373.72,-272.83 369.6,-263.07 366.74,-273.27 373.72,-272.83"/>
</g>
<!-- app_rag_retrieval -->
<g id="node10" class="node">
<title>app_rag_retrieval</title><style>.edge>path:hover{stroke-width:8}</style>
<ellipse fill="#a83838" stroke="black" cx="41.01" cy="-244.99" rx="41.02" ry="28.98"/>
<text text-anchor="middle" x="41.01" y="-253.49" font-family="Helvetica,sans-Serif" font-size="10.00" fill="#ffffff">app.</text>
<text text-anchor="middle" x="41.01" y="-242.49" font-family="Helvetica,sans-Serif" font-size="10.00" fill="#ffffff">rag.</text>
<text text-anchor="middle" x="41.01" y="-231.49" font-family="Helvetica,sans-Serif" font-size="10.00" fill="#ffffff">retrieval</text>
</g>
<!-- app_config&#45;&gt;app_rag_retrieval -->
<g id="edge5" class="edge">
<title>app_config&#45;&gt;app_rag_retrieval</title><style>.edge>path:hover{stroke-width:8}</style>
<path fill="none" stroke="black" d="M279.01,-475.71C279.01,-461.54 279.01,-440.95 279.01,-422.97"/>
<path fill="none" stroke="black" d="M279.01,-420.97C279.01,-419.42 144.08,-321 77.41,-272.47"/>
<polygon fill="#e72222" stroke="black" points="79.39,-269.58 69.25,-266.53 75.27,-275.24 79.39,-269.58"/>
</g>
<!-- app_ingest -->
<g id="node3" class="node">
<title>app_ingest</title><style>.edge>path:hover{stroke-width:8}</style>
<ellipse fill="#c24747" stroke="black" cx="434.01" cy="-162" rx="40.06" ry="18"/>
<text text-anchor="middle" x="434.01" y="-159.5" font-family="Helvetica,sans-Serif" font-size="10.00" fill="#ffffff">app.ingest</text>
</g>
<!-- app_ingest&#45;&gt;app_chat -->
<g id="edge6" class="edge">
<title>app_ingest&#45;&gt;app_chat</title><style>.edge>path:hover{stroke-width:8}</style>
<path fill="none" stroke="black" d="M434.01,-143.7C434.01,-135.98 434.01,-126.71 434.01,-118.11"/>
<polygon fill="#c24747" stroke="black" points="437.51,-118.1 434.01,-108.1 430.51,-118.1 437.51,-118.1"/>
</g>
<!-- app_ingest_enrich -->
<g id="node4" class="node">
<title>app_ingest_enrich</title><style>.edge>path:hover{stroke-width:8}</style>
<ellipse fill="#c24747" stroke="black" cx="502.01" cy="-244.99" rx="35.21" ry="28.98"/>
<text text-anchor="middle" x="502.01" y="-253.49" font-family="Helvetica,sans-Serif" font-size="10.00" fill="#ffffff">app.</text>
<text text-anchor="middle" x="502.01" y="-242.49" font-family="Helvetica,sans-Serif" font-size="10.00" fill="#ffffff">ingest.</text>
<text text-anchor="middle" x="502.01" y="-231.49" font-family="Helvetica,sans-Serif" font-size="10.00" fill="#ffffff">enrich</text>
</g>
<!-- app_ingest_enrich&#45;&gt;app_chat -->
<g id="edge7" class="edge">
<title>app_ingest_enrich&#45;&gt;app_chat</title><style>.edge>path:hover{stroke-width:8}</style>
<path fill="none" stroke="black" d="M500.82,-215.93C498.98,-195.12 494.39,-166.56 483.01,-144 477.25,-132.58 468.29,-121.83 459.6,-113.05"/>
<polygon fill="#c24747" stroke="black" points="461.76,-110.27 452.12,-105.86 456.91,-115.31 461.76,-110.27"/>
</g>
<!-- app_rag -->
<g id="node7" class="node">
<title>app_rag</title><style>.edge>path:hover{stroke-width:8}</style>
<ellipse fill="#ce3b3b" stroke="black" cx="561.01" cy="-162" rx="31.4" ry="18"/>
<text text-anchor="middle" x="561.01" y="-159.5" font-family="Helvetica,sans-Serif" font-size="10.00" fill="#ffffff">app.rag</text>
</g>
<!-- app_rag&#45;&gt;app_chat -->
<g id="edge8" class="edge">
<title>app_rag&#45;&gt;app_chat</title><style>.edge>path:hover{stroke-width:8}</style>
<path fill="none" stroke="black" d="M539.18,-148.97C518.98,-137.84 488.72,-121.15 465.84,-108.54"/>
<polygon fill="#ce3b3b" stroke="black" points="467.29,-105.35 456.84,-103.58 463.91,-111.48 467.29,-105.35"/>
</g>
<!-- app_rag_chroma_client&#45;&gt;app_rag_retrieval -->
<g id="edge9" class="edge">
<title>app_rag_chroma_client&#45;&gt;app_rag_retrieval</title><style>.edge>path:hover{stroke-width:8}</style>
<path fill="none" stroke="black" d="M232.33,-320.15C222.98,-316.69 213.21,-313.16 204.01,-309.98 154.2,-292.76 139.37,-294.96 91.01,-273.98 87.62,-272.51 84.16,-270.87 80.72,-269.15"/>
<polygon fill="#b83d3d" stroke="black" points="82.21,-265.99 71.72,-264.46 78.97,-272.19 82.21,-265.99"/>
</g>
<!-- app_rag_llm&#45;&gt;app_chat -->
<g id="edge10" class="edge">
<title>app_rag_llm&#45;&gt;app_chat</title><style>.edge>path:hover{stroke-width:8}</style>
<path fill="none" stroke="black" d="M365.68,-226.79C363.9,-210.3 362.3,-184.77 366.01,-163"/>
<path fill="none" stroke="black" d="M366.01,-161C369.67,-139.52 386.81,-121.96 402.96,-109.8"/>
<polygon fill="#b03a3a" stroke="black" points="405.1,-112.57 411.25,-103.94 401.06,-106.86 405.1,-112.57"/>
</g>
<!-- app_rag_retrieval&#45;&gt;app_chat -->
<g id="edge11" class="edge">
<title>app_rag_retrieval&#45;&gt;app_chat</title><style>.edge>path:hover{stroke-width:8}</style>
<path fill="none" stroke="black" d="M68.85,-223.08C90.97,-206.57 122.78,-183.04 151.01,-163"/>
<path fill="none" stroke="black" d="M151.01,-161C223.43,-109.59 329.52,-95.77 389.11,-92.16"/>
<polygon fill="#a83838" stroke="black" points="389.53,-95.64 399.32,-91.62 389.15,-88.65 389.53,-95.64"/>
</g>
<!-- app_runtime -->
<g id="node11" class="node">
<title>app_runtime</title><style>.edge>path:hover{stroke-width:8}</style>
<ellipse fill="#c24747" stroke="black" cx="293.01" cy="-162" rx="44.98" ry="18"/>
<text text-anchor="middle" x="293.01" y="-159.5" font-family="Helvetica,sans-Serif" font-size="10.00" fill="#ffffff">app.runtime</text>
</g>
<!-- app_runtime&#45;&gt;app_chat -->
<g id="edge12" class="edge">
<title>app_runtime&#45;&gt;app_chat</title><style>.edge>path:hover{stroke-width:8}</style>
<path fill="none" stroke="black" d="M320.2,-147.5C343.19,-136.09 376.21,-119.69 400.77,-107.5"/>
<polygon fill="#c24747" stroke="black" points="402.33,-110.64 409.73,-103.05 399.22,-104.37 402.33,-110.64"/>
</g>
<!-- app_runtime_fresh_news -->
<g id="node12" class="node">
<title>app_runtime_fresh_news</title><style>.edge>path:hover{stroke-width:8}</style>
<ellipse fill="#c24747" stroke="black" cx="151.01" cy="-244.99" rx="50.82" ry="28.98"/>
<text text-anchor="middle" x="151.01" y="-253.49" font-family="Helvetica,sans-Serif" font-size="10.00" fill="#ffffff">app.</text>
<text text-anchor="middle" x="151.01" y="-242.49" font-family="Helvetica,sans-Serif" font-size="10.00" fill="#ffffff">runtime.</text>
<text text-anchor="middle" x="151.01" y="-231.49" font-family="Helvetica,sans-Serif" font-size="10.00" fill="#ffffff">fresh_news</text>
</g>
<!-- app_runtime_fresh_news&#45;&gt;app_chat -->
<g id="edge13" class="edge">
<title>app_runtime_fresh_news&#45;&gt;app_chat</title><style>.edge>path:hover{stroke-width:8}</style>
<path fill="none" stroke="black" d="M141.12,-216.19C136.47,-197.55 134.96,-174.4 151.01,-163"/>
</g>
<!-- app_schemas -->
<g id="node13" class="node">
<title>app_schemas</title><style>.edge>path:hover{stroke-width:8}</style>
<ellipse fill="#e72222" stroke="black" cx="438.01" cy="-421.97" rx="47.86" ry="18"/>
<text text-anchor="middle" x="438.01" y="-419.47" font-family="Helvetica,sans-Serif" font-size="10.00" fill="#ffffff">app.schemas</text>
</g>
<!-- app_schemas&#45;&gt;app_chat -->
<g id="edge14" class="edge">
<title>app_schemas&#45;&gt;app_chat</title><style>.edge>path:hover{stroke-width:8}</style>
<path fill="none" stroke="black" d="M438.01,-337.97C429.77,-283.73 443.86,-264.92 419.01,-216 403.93,-186.3 360.42,-195.84 366.01,-163"/>
</g>
<!-- app_schemas&#45;&gt;app_ingest_news_api -->
<g id="edge15" class="edge">
<title>app_schemas&#45;&gt;app_ingest_news_api</title><style>.edge>path:hover{stroke-width:8}</style>
<path fill="none" stroke="black" d="M439.5,-403.79C440.58,-387.32 441.33,-361.8 438.01,-339.97"/>
<path fill="none" stroke="black" d="M438.01,-337.97C437.99,-337.86 358.01,-295.61 306.5,-268.42"/>
<polygon fill="#e72222" stroke="black" points="308.03,-265.27 297.56,-263.7 304.77,-271.46 308.03,-265.27"/>
</g>
<!-- app_schemas&#45;&gt;app_main -->
<g id="edge16" class="edge">
<title>app_schemas&#45;&gt;app_main</title><style>.edge>path:hover{stroke-width:8}</style>
<path fill="none" stroke="black" d="M438.01,-337.97C428.9,-282.93 506.67,-313.54 546.01,-273.98 580.14,-239.67 588.35,-226.71 601.01,-180 614.98,-128.49 576.03,-72.85 549.47,-42.34"/>
<polygon fill="#e72222" stroke="black" points="551.97,-39.89 542.69,-34.78 546.76,-44.56 551.97,-39.89"/>
</g>
<!-- app_schemas&#45;&gt;app_rag_llm -->
<g id="edge17" class="edge">
<title>app_schemas&#45;&gt;app_rag_llm</title><style>.edge>path:hover{stroke-width:8}</style>
<path fill="none" stroke="black" d="M438.01,-337.97C433.74,-309.85 412.73,-284.67 394.84,-267.8"/>
<polygon fill="#e72222" stroke="black" points="397.18,-265.2 387.42,-261.09 392.49,-270.39 397.18,-265.2"/>
</g>
</g>
</svg>
